<svg viewBox="0 0 401 283" fill="none" xmlns="http://www.w3.org/2000/svg">
	<g id="img1">
		<path id="Vector" d="M31.0715 65.1463C44.9759 59.1475 62.2941 62.9483 79.2072 65.5862C79.3646 62.3917 81.2723 58.5038 79.2739 56.2751C76.8461 53.5674 77.0696 50.7224 78.5305 47.8611C82.2664 40.5441 76.914 32.7585 71.5096 26.2848C70.2915 24.829 68.7521 23.6851 67.0163 22.9461C65.2805 22.2071 63.3974 21.8938 61.5198 22.0317L51.5087 22.757C49.0726 22.9335 46.7478 23.8605 44.8452 25.4139C42.9427 26.9672 41.5533 29.073 40.8628 31.4492C38.4723 34.7469 37.1929 38.0355 37.9984 41.307C34.4179 43.789 33.8164 46.785 35.4253 50.1625C36.7896 52.289 36.7751 54.359 35.3632 56.3718C33.5091 58.9379 32.0889 61.7991 31.161 64.8383L31.0715 65.1463Z" fill="#100F1C" />
		<path id="Vector_2" d="M391.498 244.649H108.109C105.589 244.649 103.172 243.633 101.39 241.826C99.6077 240.018 98.6066 237.567 98.6066 235.01C201.335 222.9 302.133 222.9 401 235.01C401 237.567 399.999 240.018 398.217 241.826C396.435 243.633 394.018 244.649 391.498 244.649Z" fill="#100F1C" />
		<path id="Vector_3" d="M401 235.577L98.6066 235.01L133.653 175.195L133.821 174.911V43.0843C133.82 41.4842 134.131 39.8997 134.735 38.4214C135.338 36.9431 136.223 35.5999 137.339 34.4684C138.454 33.337 139.778 32.4395 141.236 31.8272C142.693 31.215 144.255 30.8999 145.832 30.9H352.097C353.675 30.8999 355.237 31.215 356.694 31.8272C358.152 32.4395 359.476 33.337 360.591 34.4684C361.707 35.5999 362.591 36.9431 363.195 38.4214C363.799 39.8997 364.109 41.4842 364.109 43.0843V175.818L401 235.577Z" fill="#5B5971" />
		<path id="Vector_4" d="M145.559 39.4047C144.521 39.4058 143.527 39.8244 142.793 40.5684C142.06 41.3124 141.647 42.3212 141.646 43.3735V163.572C141.647 164.624 142.06 165.633 142.793 166.377C143.527 167.121 144.521 167.539 145.559 167.541H354.048C355.085 167.539 356.08 167.121 356.813 166.377C357.547 165.633 357.959 164.624 357.961 163.572V43.3735C357.959 42.3213 357.547 41.3125 356.813 40.5685C356.08 39.8244 355.085 39.4059 354.048 39.4047H145.559Z" fill="white" />
		<path id="Vector_5" d="M146.476 183.416C146.155 183.416 145.842 183.51 145.572 183.685C145.302 183.861 145.087 184.111 144.952 184.406L134.154 208.219C134.036 208.478 133.985 208.763 134.004 209.047C134.023 209.332 134.113 209.607 134.265 209.847C134.417 210.087 134.625 210.285 134.872 210.422C135.119 210.559 135.396 210.631 135.677 210.631H362.771C363.057 210.631 363.338 210.556 363.588 210.415C363.837 210.274 364.047 210.07 364.198 209.824C364.348 209.577 364.433 209.296 364.446 209.006C364.459 208.716 364.399 208.428 364.271 208.169L352.533 184.356C352.394 184.073 352.18 183.835 351.915 183.669C351.65 183.502 351.345 183.415 351.033 183.416H146.476Z" fill="#2F2E41" />
		<path id="Vector_6" d="M248.965 37.4203C250.354 37.4203 251.48 36.278 251.48 34.8689C251.48 33.4598 250.354 32.3175 248.965 32.3175C247.576 32.3175 246.45 33.4598 246.45 34.8689C246.45 36.278 247.576 37.4203 248.965 37.4203Z" fill="white" />
		<path id="ver" class="camera" d="M248.965 37.4203C250.354 37.4203 251.48 36.278 251.48 34.8689C251.48 33.4598 250.354 32.3175 248.965 32.3175C247.576 32.3175 246.45 33.4598 246.45 34.8689C246.45 36.278 247.576 37.4203 248.965 37.4203Z" fill="#FF0000" />
		<path id="Vector_7" d="M226.643 215.166C226.275 215.167 225.917 215.29 225.624 215.518C225.331 215.745 225.121 216.064 225.024 216.425L222.316 226.63C222.249 226.882 222.24 227.147 222.29 227.403C222.34 227.659 222.447 227.9 222.604 228.107C222.76 228.315 222.962 228.483 223.192 228.598C223.423 228.714 223.677 228.774 223.935 228.774H275.45C275.717 228.774 275.98 228.709 276.218 228.585C276.456 228.46 276.66 228.28 276.815 228.059C276.971 227.838 277.071 227.583 277.109 227.315C277.147 227.046 277.121 226.773 277.034 226.516L273.551 216.311C273.437 215.977 273.223 215.687 272.939 215.482C272.655 215.277 272.315 215.167 271.967 215.166H226.643Z" fill="#2F2E41" />
		<path id="Vector_8" d="M364.109 172.927V175.195H133.653L133.826 174.911V172.927H364.109Z" fill="#2F2E41" />
		<path id="Vector_9" d="M357.681 79.3763C379.29 79.3763 396.808 61.6073 396.808 39.6881C396.808 17.769 379.29 0 357.681 0C336.072 0 318.554 17.769 318.554 39.6881C318.554 61.6073 336.072 79.3763 357.681 79.3763Z" fill="#00BFA6" />
		<path id="Abr" class="door-lock" d="M367.742 34.8688H347.62V25.7972C347.62 19.2267 351.851 14.4578 357.681 14.4578C363.511 14.4578 367.742 19.2267 367.742 25.7972L367.742 34.8688ZM349.856 32.6009H365.506V25.7972C365.506 20.4561 362.289 16.7257 357.681 16.7257C353.074 16.7257 349.856 20.4561 349.856 25.7972L349.856 32.6009Z" fill="white" />
		<g id="Vector_10">
			<path d="M374.195 58.3799H341.776C341.183 58.3793 340.615 58.1401 340.196 57.7149C339.777 57.2898 339.541 56.7133 339.54 56.112V36.2679C339.541 35.6666 339.777 35.0901 340.196 34.665C340.615 34.2398 341.183 34.0006 341.776 34H374.195C374.788 34.0006 375.356 34.2398 375.776 34.665C376.195 35.0901 376.431 35.6666 376.431 36.2679V56.1119C376.431 56.7132 376.195 57.2898 375.776 57.7149C375.356 58.1401 374.788 58.3793 374.195 58.3799ZM341.776 36.2679V56.112H374.197L374.195 36.2679L341.776 36.2679Z" fill="white" />
			<path d="M341.776 36.2679V56.112H374.197L374.195 36.2679L341.776 36.2679Z" fill="#00BFA6" />
		</g>
		<path id="Vector_11" d="M357.681 46.4918C358.916 46.4918 359.917 45.4765 359.917 44.2239C359.917 42.9714 358.916 41.9561 357.681 41.9561C356.446 41.9561 355.445 42.9714 355.445 44.2239C355.445 45.4765 356.446 46.4918 357.681 46.4918Z" fill="white" />
		<path id="Vector_12" d="M330.367 126.771H169.239C168.448 126.77 167.69 126.45 167.13 125.883C166.571 125.316 166.256 124.546 166.255 123.744V83.2013C166.256 82.3989 166.571 81.6296 167.13 81.0622C167.69 80.4948 168.448 80.1756 169.239 80.1747H330.367C331.158 80.1756 331.917 80.4948 332.476 81.0622C333.036 81.6296 333.35 82.3989 333.351 83.2013V123.744C333.35 124.546 333.036 125.316 332.476 125.883C331.917 126.45 331.158 126.77 330.367 126.771V126.771ZM169.239 81.3854C168.765 81.3859 168.309 81.5774 167.974 81.9178C167.638 82.2583 167.449 82.7199 167.449 83.2014V123.744C167.449 124.225 167.638 124.687 167.974 125.027C168.309 125.368 168.765 125.559 169.239 125.56H330.367C330.842 125.559 331.297 125.368 331.633 125.027C331.968 124.687 332.157 124.225 332.158 123.744V83.2013C332.157 82.7199 331.968 82.2583 331.633 81.9178C331.297 81.5774 330.842 81.3859 330.367 81.3853L169.239 81.3854Z" fill="#E6E6E6" />
		<path id="Vector_13" class="camera" d="M194.275 114.246C200.988 114.246 206.43 108.726 206.43 101.917C206.43 95.1078 200.988 89.5879 194.275 89.5879C187.562 89.5879 182.121 95.1078 182.121 101.917C182.121 108.726 187.562 114.246 194.275 114.246Z" fill="#E6E6E6" />
		<path id="desc" class="description-1" d="M222.347 93.6976C222.08 93.6972 221.817 93.75 221.57 93.8531C221.324 93.9562 221.101 94.1075 220.912 94.2983C220.724 94.4892 220.574 94.7159 220.472 94.9654C220.37 95.2149 220.318 95.4823 220.318 95.7525C220.318 96.0226 220.37 96.2901 220.472 96.5396C220.574 96.7891 220.724 97.0158 220.912 97.2066C221.101 97.3975 221.324 97.5487 221.57 97.6518C221.817 97.7549 222.08 97.8077 222.347 97.8073H317.847C318.385 97.8073 318.9 97.5908 319.28 97.2054C319.66 96.8201 319.873 96.2974 319.873 95.7525C319.873 95.2075 319.66 94.6848 319.28 94.2995C318.9 93.9141 318.385 93.6976 317.847 93.6976H222.347Z" fill="#E6E6E6" />
		<path id="desc-1" class="description-2" d="M222.347 106.027C221.809 106.027 221.294 106.243 220.914 106.628C220.534 107.014 220.321 107.536 220.321 108.081C220.321 108.626 220.534 109.149 220.914 109.534C221.294 109.92 221.809 110.136 222.347 110.136H263.441C263.978 110.136 264.493 109.92 264.873 109.534C265.253 109.149 265.467 108.626 265.467 108.081C265.467 107.536 265.253 107.014 264.873 106.628C264.493 106.243 263.978 106.027 263.441 106.027H222.347Z" fill="#E6E6E6" />
		<path id="Vector_14" d="M103.451 112.651L73.6655 128.714L73.2885 115.328C83.0103 113.682 92.2597 110.816 100.812 106.149L103.927 98.3426C104.267 97.4919 104.818 96.7454 105.528 96.1763C106.238 95.6073 107.081 95.2352 107.976 95.0967C108.87 94.9581 109.785 95.0579 110.63 95.3861C111.474 95.7144 112.221 96.2599 112.795 96.969V96.969C113.635 98.0066 114.055 99.3293 113.97 100.669C113.885 102.009 113.3 103.266 112.336 104.185L103.451 112.651Z" fill="#FFB8B8" />
		<path id="Vector_15" d="M30.6727 205.391C30.4554 204.583 30.4093 203.737 30.5373 202.909C30.6654 202.081 30.9647 201.291 31.4157 200.589L37.9587 190.403C39.5063 187.994 41.881 186.254 44.622 185.52C47.363 184.787 50.2749 185.112 52.7927 186.433V186.433C50.0429 191.181 50.4262 195.346 53.7424 198.966C48.5944 201.515 43.8364 204.805 39.6158 208.735C38.8453 209.267 37.9605 209.606 37.035 209.722C36.1095 209.837 35.1701 209.727 34.2951 209.4C33.4202 209.073 32.6349 208.538 32.0048 207.841C31.3747 207.144 30.918 206.304 30.6727 205.391V205.391Z" fill="#2F2E41" />
		<path id="Vector_16" d="M104.808 192.073C103.818 193.747 102.42 195.135 100.749 196.103C99.078 197.071 97.1897 197.587 95.2653 197.602L51.7974 197.936L49.9122 186.845L69.141 181.109L52.9285 168.488L70.6491 147.453L102.835 177.883C104.717 179.661 105.939 182.041 106.298 184.624C106.657 187.207 106.131 189.837 104.808 192.073V192.073Z" fill="#5D5B77" />
		<path id="Vector_17" d="M45.0108 267.924H34.8309C25.6907 204.373 16.387 140.644 43.8797 116.858L76.3047 122.212L72.1573 150.131L54.0597 171.165L45.0108 267.924Z" fill="#5D5B77" />
		<path id="Vector_18" d="M53.9594 282.32C53.1625 282.54 52.3286 282.587 51.5125 282.457C50.6965 282.328 49.9168 282.024 49.2247 281.567L38.1714 280.06C35.7962 278.49 34.0805 276.081 33.3572 273.301C32.6339 270.521 32.9546 267.567 34.2569 265.013C38.9379 267.802 43.0441 267.413 46.6124 264.049C49.1336 269.213 53.2877 268.898 57.2551 273.248C57.7804 274.03 58.114 274.927 58.2281 275.866C58.3422 276.805 58.2335 277.758 57.9111 278.645C57.5886 279.533 57.0618 280.329 56.3744 280.969C55.687 281.608 54.8591 282.071 53.9594 282.32V282.32Z" fill="#100F1C" />
		<path id="Vector_19" d="M69.1411 74.4064L50.2893 69.8171C53.4203 63.3163 53.6781 56.0828 52.1745 48.4001L64.9937 48.0177C65.3953 57.5712 66.6105 66.4966 69.1411 74.4064Z" fill="#FFB8B8" />
		<path id="Vector_20" d="M74.3221 133.727C60.5988 143.213 50.9022 134.052 43.5026 119.917C44.5309 111.268 42.866 100.918 39.7825 89.6718C38.4112 84.7114 38.9232 79.4097 41.2174 74.8134C43.5115 70.2172 47.4212 66.6604 52.1744 64.8453V64.8453L68.3869 71.7294C82.1532 83.1115 84.8628 95.4406 79.698 108.444L74.3221 133.727Z" fill="#00BFA6" />
		<path id="Vector_21" d="M34.8308 83.9676L19.7494 91.999L46.5189 108.062L50.2437 117.381C50.4923 118.003 50.6134 118.67 50.5997 119.341C50.5859 120.012 50.4375 120.674 50.1636 121.285C49.8897 121.896 49.496 122.444 49.0064 122.895C48.5169 123.347 47.9418 123.693 47.3162 123.911V123.911C46.6051 124.16 45.8469 124.239 45.101 124.14C44.355 124.042 43.6416 123.77 43.0165 123.346C42.3915 122.921 41.8718 122.356 41.4982 121.694C41.1246 121.031 40.9072 120.29 40.863 119.529L40.4864 113.033L6.46264 101.645C5.31629 101.261 4.27107 100.617 3.40612 99.7633C2.54117 98.9092 1.87918 97.8666 1.47029 96.7145V96.7145C0.874277 95.0352 0.843943 93.2028 1.38402 91.5041C1.92411 89.8054 3.00413 88.3362 4.45509 87.3265L31.8146 68.2874L34.8308 83.9676Z" fill="#FFB8B8" />
		<path id="Vector_22" d="M49.9123 85.4974C43.6224 82.7014 37.9028 85.7387 30.6835 88.1745L29.5524 67.9049C36.7209 64.0294 43.5556 62.9844 49.9123 65.9927L49.9123 85.4974Z" fill="#00BFA6" />
		<path id="Vector_23" d="M57.4364 58.0579C64.0838 58.0579 69.4725 52.5918 69.4725 45.8491C69.4725 39.1063 64.0838 33.6403 57.4364 33.6403C50.789 33.6403 45.4003 39.1063 45.4003 45.8491C45.4003 52.5918 50.789 58.0579 57.4364 58.0579Z" fill="#FFB8B8" />
		<path id="Vector_24" d="M71.8354 44.3087C59.9186 45.4926 50.8381 43.5157 45.0347 37.8868V33.3536H70.8241L71.8354 44.3087Z" fill="#100F1C" />
		<g id="Group 1">
			<path id="0" class="low" d="M148.51 197.986C148.17 197.997 147.907 197.948 147.719 197.838C147.536 197.729 147.431 197.573 147.405 197.369C147.381 197.161 147.445 196.916 147.596 196.634L148.704 194.567C148.858 194.28 149.056 194.031 149.301 193.819C149.55 193.607 149.831 193.438 150.144 193.313C150.458 193.188 150.784 193.12 151.123 193.109C151.467 193.098 151.731 193.148 151.914 193.257C152.102 193.366 152.207 193.522 152.228 193.726C152.254 193.93 152.19 194.175 152.037 194.461L150.929 196.529C150.778 196.81 150.577 197.06 150.325 197.277C150.076 197.489 149.795 197.658 149.481 197.783C149.173 197.907 148.849 197.975 148.51 197.986ZM148.834 197.381C149.109 197.373 149.367 197.292 149.608 197.139C149.855 196.987 150.042 196.791 150.169 196.553L151.278 194.485C151.405 194.247 151.425 194.056 151.337 193.914C151.254 193.772 151.075 193.705 150.799 193.714C150.524 193.723 150.263 193.803 150.017 193.956C149.776 194.109 149.591 194.304 149.464 194.543L148.355 196.61C148.228 196.849 148.205 197.039 148.289 197.181C148.377 197.323 148.558 197.39 148.834 197.381ZM149.6 195.951C149.463 195.955 149.371 195.92 149.324 195.844C149.282 195.769 149.295 195.669 149.362 195.543C149.427 195.421 149.522 195.323 149.645 195.246C149.775 195.165 149.909 195.123 150.047 195.118C150.184 195.114 150.274 195.15 150.316 195.225C150.365 195.296 150.357 195.392 150.291 195.513C150.224 195.639 150.125 195.742 149.995 195.823C149.87 195.904 149.738 195.946 149.6 195.951Z" fill="white" />
			<path id="0_2" class="self" d="M166.215 197.986C165.876 197.997 165.612 197.948 165.424 197.838C165.241 197.729 165.137 197.573 165.111 197.369C165.087 197.161 165.15 196.916 165.301 196.634L166.41 194.567C166.563 194.28 166.762 194.031 167.006 193.819C167.255 193.607 167.536 193.438 167.85 193.313C168.163 193.188 168.49 193.12 168.829 193.109C169.173 193.098 169.436 193.148 169.62 193.257C169.808 193.366 169.912 193.522 169.933 193.726C169.959 193.93 169.896 194.175 169.742 194.461L168.634 196.529C168.483 196.81 168.282 197.06 168.031 197.277C167.781 197.489 167.5 197.658 167.187 197.783C166.878 197.907 166.554 197.975 166.215 197.986ZM166.539 197.381C166.814 197.373 167.073 197.292 167.314 197.139C167.56 196.987 167.747 196.791 167.875 196.553L168.983 194.485C169.111 194.247 169.131 194.056 169.042 193.914C168.959 193.772 168.78 193.705 168.505 193.714C168.229 193.723 167.969 193.803 167.723 193.956C167.481 194.109 167.297 194.304 167.169 194.543L166.061 196.61C165.933 196.849 165.911 197.039 165.994 197.181C166.082 197.323 166.264 197.39 166.539 197.381ZM167.306 195.951C167.168 195.955 167.076 195.92 167.029 195.844C166.988 195.769 167 195.669 167.068 195.543C167.133 195.421 167.227 195.323 167.35 195.246C167.48 195.165 167.614 195.123 167.752 195.118C167.89 195.114 167.979 195.15 168.021 195.225C168.07 195.296 168.062 195.392 167.997 195.513C167.93 195.639 167.831 195.742 167.7 195.823C167.575 195.904 167.444 195.946 167.306 195.951Z" fill="white" />
			<path id="0_3" class="low" d="M172.117 197.986C171.778 197.997 171.514 197.948 171.326 197.838C171.143 197.729 171.039 197.573 171.012 197.369C170.989 197.161 171.052 196.916 171.203 196.634L172.311 194.567C172.465 194.28 172.664 194.031 172.908 193.819C173.157 193.607 173.438 193.438 173.752 193.313C174.065 193.188 174.391 193.12 174.731 193.109C175.075 193.098 175.338 193.148 175.521 193.257C175.709 193.366 175.814 193.522 175.835 193.726C175.861 193.93 175.798 194.175 175.644 194.461L174.536 196.529C174.385 196.81 174.184 197.06 173.932 197.277C173.683 197.489 173.402 197.658 173.088 197.783C172.78 197.907 172.456 197.975 172.117 197.986ZM172.441 197.381C172.716 197.373 172.975 197.292 173.216 197.139C173.462 196.987 173.649 196.791 173.777 196.553L174.885 194.485C175.013 194.247 175.032 194.056 174.944 193.914C174.861 193.772 174.682 193.705 174.407 193.714C174.131 193.723 173.871 193.803 173.624 193.956C173.383 194.109 173.199 194.304 173.071 194.543L171.963 196.61C171.835 196.849 171.813 197.039 171.896 197.181C171.984 197.323 172.166 197.39 172.441 197.381ZM173.208 195.951C173.07 195.955 172.978 195.92 172.931 195.844C172.89 195.769 172.902 195.669 172.97 195.543C173.035 195.421 173.129 195.323 173.252 195.246C173.382 195.165 173.516 195.123 173.654 195.118C173.791 195.114 173.881 195.15 173.923 195.225C173.972 195.296 173.964 195.392 173.899 195.513C173.831 195.639 173.733 195.742 173.602 195.823C173.477 195.904 173.345 195.946 173.208 195.951Z" fill="white" />
			<path id="0_4" class="self" d="M178.019 197.986C177.68 197.997 177.416 197.948 177.228 197.838C177.045 197.729 176.94 197.573 176.914 197.369C176.89 197.161 176.954 196.916 177.105 196.634L178.213 194.567C178.367 194.28 178.565 194.031 178.81 193.819C179.059 193.607 179.34 193.438 179.654 193.313C179.967 193.188 180.293 193.12 180.633 193.109C180.977 193.098 181.24 193.148 181.423 193.257C181.611 193.366 181.716 193.522 181.737 193.726C181.763 193.93 181.7 194.175 181.546 194.461L180.438 196.529C180.287 196.81 180.086 197.06 179.834 197.277C179.585 197.489 179.304 197.658 178.99 197.783C178.682 197.907 178.358 197.975 178.019 197.986ZM178.343 197.381C178.618 197.373 178.876 197.292 179.118 197.139C179.364 196.987 179.551 196.791 179.678 196.553L180.787 194.485C180.915 194.247 180.934 194.056 180.846 193.914C180.763 193.772 180.584 193.705 180.308 193.714C180.033 193.723 179.772 193.803 179.526 193.956C179.285 194.109 179.101 194.304 178.973 194.543L177.865 196.61C177.737 196.849 177.715 197.039 177.798 197.181C177.886 197.323 178.068 197.39 178.343 197.381ZM179.11 195.951C178.972 195.955 178.88 195.92 178.833 195.844C178.791 195.769 178.804 195.669 178.872 195.543C178.937 195.421 179.031 195.323 179.154 195.246C179.284 195.165 179.418 195.123 179.556 195.118C179.693 195.114 179.783 195.15 179.825 195.225C179.874 195.296 179.866 195.392 179.801 195.513C179.733 195.639 179.634 195.742 179.504 195.823C179.379 195.904 179.247 195.946 179.11 195.951Z" fill="white" />
			<path id="0_5" class="low" d="M200.151 197.986C199.812 197.997 199.548 197.948 199.36 197.838C199.177 197.729 199.072 197.573 199.046 197.369C199.022 197.161 199.086 196.916 199.237 196.634L200.345 194.567C200.499 194.28 200.697 194.031 200.942 193.819C201.191 193.607 201.472 193.438 201.786 193.313C202.099 193.188 202.425 193.12 202.764 193.109C203.109 193.098 203.372 193.148 203.555 193.257C203.743 193.366 203.848 193.522 203.869 193.726C203.895 193.93 203.832 194.175 203.678 194.461L202.57 196.529C202.419 196.81 202.218 197.06 201.966 197.277C201.717 197.489 201.436 197.658 201.122 197.783C200.814 197.907 200.49 197.975 200.151 197.986ZM200.475 197.381C200.75 197.373 201.008 197.292 201.25 197.139C201.496 196.987 201.683 196.791 201.81 196.553L202.919 194.485C203.046 194.247 203.066 194.056 202.978 193.914C202.895 193.772 202.716 193.705 202.44 193.714C202.165 193.723 201.904 193.803 201.658 193.956C201.417 194.109 201.233 194.304 201.105 194.543L199.997 196.61C199.869 196.849 199.846 197.039 199.93 197.181C200.018 197.323 200.2 197.39 200.475 197.381ZM201.242 195.951C201.104 195.955 201.012 195.92 200.965 195.844C200.923 195.769 200.936 195.669 201.004 195.543C201.069 195.421 201.163 195.323 201.286 195.246C201.416 195.165 201.55 195.123 201.688 195.118C201.825 195.114 201.915 195.15 201.957 195.225C202.006 195.296 201.998 195.392 201.933 195.513C201.865 195.639 201.766 195.742 201.636 195.823C201.511 195.904 201.379 195.946 201.242 195.951Z" fill="white" />
			<path id="0_6" class="self" d="M251.792 197.986C251.453 197.997 251.189 197.948 251.001 197.838C250.818 197.729 250.713 197.573 250.687 197.369C250.664 197.161 250.727 196.916 250.878 196.634L251.986 194.567C252.14 194.28 252.339 194.031 252.583 193.819C252.832 193.607 253.113 193.438 253.427 193.313C253.74 193.188 254.066 193.12 254.406 193.109C254.75 193.098 255.013 193.148 255.196 193.257C255.384 193.366 255.489 193.522 255.51 193.726C255.536 193.93 255.473 194.175 255.319 194.461L254.211 196.529C254.06 196.81 253.859 197.06 253.607 197.277C253.358 197.489 253.077 197.658 252.763 197.783C252.455 197.907 252.131 197.975 251.792 197.986ZM252.116 197.381C252.391 197.373 252.649 197.292 252.891 197.139C253.137 196.987 253.324 196.791 253.452 196.553L254.56 194.485C254.688 194.247 254.707 194.056 254.619 193.914C254.536 193.772 254.357 193.705 254.081 193.714C253.806 193.723 253.546 193.803 253.299 193.956C253.058 194.109 252.874 194.304 252.746 194.543L251.638 196.61C251.51 196.849 251.488 197.039 251.571 197.181C251.659 197.323 251.841 197.39 252.116 197.381ZM252.883 195.951C252.745 195.955 252.653 195.92 252.606 195.844C252.564 195.769 252.577 195.669 252.645 195.543C252.71 195.421 252.804 195.323 252.927 195.246C253.057 195.165 253.191 195.123 253.329 195.118C253.466 195.114 253.556 195.15 253.598 195.225C253.647 195.296 253.639 195.392 253.574 195.513C253.506 195.639 253.407 195.742 253.277 195.823C253.152 195.904 253.02 195.946 252.883 195.951Z" fill="white" />
			<path id="0_7" class="low" d="M287.203 197.986C286.864 197.997 286.6 197.948 286.412 197.838C286.229 197.729 286.124 197.573 286.098 197.369C286.075 197.161 286.138 196.916 286.289 196.634L287.397 194.567C287.551 194.28 287.75 194.031 287.994 193.819C288.243 193.607 288.524 193.438 288.838 193.313C289.151 193.188 289.477 193.12 289.817 193.109C290.161 193.098 290.424 193.148 290.607 193.257C290.795 193.366 290.9 193.522 290.921 193.726C290.947 193.93 290.884 194.175 290.73 194.461L289.622 196.529C289.471 196.81 289.27 197.06 289.018 197.277C288.769 197.489 288.488 197.658 288.174 197.783C287.866 197.907 287.542 197.975 287.203 197.986ZM287.527 197.381C287.802 197.373 288.06 197.292 288.302 197.139C288.548 196.987 288.735 196.791 288.863 196.553L289.971 194.485C290.099 194.247 290.118 194.056 290.03 193.914C289.947 193.772 289.768 193.705 289.493 193.714C289.217 193.723 288.957 193.803 288.71 193.956C288.469 194.109 288.285 194.304 288.157 194.543L287.049 196.61C286.921 196.849 286.899 197.039 286.982 197.181C287.07 197.323 287.252 197.39 287.527 197.381ZM288.294 195.951C288.156 195.955 288.064 195.92 288.017 195.844C287.975 195.769 287.988 195.669 288.056 195.543C288.121 195.421 288.215 195.323 288.338 195.246C288.468 195.165 288.602 195.123 288.74 195.118C288.877 195.114 288.967 195.15 289.009 195.225C289.058 195.296 289.05 195.392 288.985 195.513C288.917 195.639 288.819 195.742 288.688 195.823C288.563 195.904 288.431 195.946 288.294 195.951Z" fill="white" />
			<path id="0_8" class="self" d="M319.663 197.986C319.324 197.997 319.06 197.948 318.872 197.838C318.689 197.729 318.585 197.573 318.559 197.369C318.535 197.161 318.598 196.916 318.749 196.634L319.858 194.567C320.011 194.28 320.21 194.031 320.454 193.819C320.703 193.607 320.984 193.438 321.298 193.313C321.611 193.188 321.938 193.12 322.277 193.109C322.621 193.098 322.884 193.148 323.068 193.257C323.256 193.366 323.36 193.522 323.381 193.726C323.407 193.93 323.344 194.175 323.19 194.461L322.082 196.529C321.931 196.81 321.73 197.06 321.479 197.277C321.229 197.489 320.948 197.658 320.635 197.783C320.326 197.907 320.002 197.975 319.663 197.986ZM319.987 197.381C320.262 197.373 320.521 197.292 320.762 197.139C321.008 196.987 321.195 196.791 321.323 196.553L322.431 194.485C322.559 194.247 322.579 194.056 322.49 193.914C322.407 193.772 322.228 193.705 321.953 193.714C321.677 193.723 321.417 193.803 321.171 193.956C320.929 194.109 320.745 194.304 320.617 194.543L319.509 196.61C319.381 196.849 319.359 197.039 319.442 197.181C319.53 197.323 319.712 197.39 319.987 197.381ZM320.754 195.951C320.616 195.955 320.524 195.92 320.477 195.844C320.436 195.769 320.448 195.669 320.516 195.543C320.581 195.421 320.675 195.323 320.798 195.246C320.928 195.165 321.062 195.123 321.2 195.118C321.338 195.114 321.427 195.15 321.469 195.225C321.518 195.296 321.51 195.392 321.445 195.513C321.378 195.639 321.279 195.742 321.148 195.823C321.023 195.904 320.892 195.946 320.754 195.951Z" fill="white" />
			<path id="0_9" class="low" d="M325.565 197.986C325.226 197.997 324.962 197.948 324.774 197.838C324.591 197.729 324.487 197.573 324.46 197.369C324.437 197.161 324.5 196.916 324.651 196.634L325.759 194.567C325.913 194.28 326.112 194.031 326.356 193.819C326.605 193.607 326.886 193.438 327.2 193.313C327.513 193.188 327.839 193.12 328.179 193.109C328.523 193.098 328.786 193.148 328.969 193.257C329.157 193.366 329.262 193.522 329.283 193.726C329.309 193.93 329.246 194.175 329.092 194.461L327.984 196.529C327.833 196.81 327.632 197.06 327.38 197.277C327.131 197.489 326.85 197.658 326.536 197.783C326.228 197.907 325.904 197.975 325.565 197.986ZM325.889 197.381C326.164 197.373 326.423 197.292 326.664 197.139C326.91 196.987 327.097 196.791 327.225 196.553L328.333 194.485C328.461 194.247 328.48 194.056 328.392 193.914C328.309 193.772 328.13 193.705 327.855 193.714C327.579 193.723 327.319 193.803 327.072 193.956C326.831 194.109 326.647 194.304 326.519 194.543L325.411 196.61C325.283 196.849 325.261 197.039 325.344 197.181C325.432 197.323 325.614 197.39 325.889 197.381ZM326.656 195.951C326.518 195.955 326.426 195.92 326.379 195.844C326.338 195.769 326.35 195.669 326.418 195.543C326.483 195.421 326.577 195.323 326.7 195.246C326.83 195.165 326.964 195.123 327.102 195.118C327.239 195.114 327.329 195.15 327.371 195.225C327.42 195.296 327.412 195.392 327.347 195.513C327.279 195.639 327.181 195.742 327.05 195.823C326.925 195.904 326.793 195.946 326.656 195.951Z" fill="white" />
			<path id="0_10" class="self" d="M293.105 197.986C292.766 197.997 292.502 197.948 292.314 197.838C292.131 197.729 292.026 197.573 292 197.369C291.976 197.161 292.04 196.916 292.191 196.634L293.299 194.567C293.453 194.28 293.651 194.031 293.896 193.819C294.145 193.607 294.426 193.438 294.74 193.313C295.053 193.188 295.379 193.12 295.718 193.109C296.063 193.098 296.326 193.148 296.509 193.257C296.697 193.366 296.802 193.522 296.823 193.726C296.849 193.93 296.785 194.175 296.632 194.461L295.524 196.529C295.373 196.81 295.172 197.06 294.92 197.277C294.671 197.489 294.39 197.658 294.076 197.783C293.768 197.907 293.444 197.975 293.105 197.986ZM293.429 197.381C293.704 197.373 293.962 197.292 294.204 197.139C294.45 196.987 294.637 196.791 294.764 196.553L295.873 194.485C296 194.247 296.02 194.056 295.932 193.914C295.849 193.772 295.67 193.705 295.394 193.714C295.119 193.723 294.858 193.803 294.612 193.956C294.371 194.109 294.187 194.304 294.059 194.543L292.951 196.61C292.823 196.849 292.8 197.039 292.884 197.181C292.972 197.323 293.154 197.39 293.429 197.381ZM294.196 195.951C294.058 195.955 293.966 195.92 293.919 195.844C293.877 195.769 293.89 195.669 293.958 195.543C294.023 195.421 294.117 195.323 294.24 195.246C294.37 195.165 294.504 195.123 294.642 195.118C294.779 195.114 294.869 195.15 294.911 195.225C294.96 195.296 294.952 195.392 294.887 195.513C294.819 195.639 294.72 195.742 294.59 195.823C294.465 195.904 294.333 195.946 294.196 195.951Z" fill="white" />
			<path id="0_11" class="low" d="M301.957 197.986C301.618 197.997 301.355 197.948 301.167 197.838C300.984 197.729 300.879 197.573 300.853 197.369C300.829 197.161 300.893 196.916 301.044 196.634L302.152 194.567C302.305 194.28 302.504 194.031 302.748 193.819C302.998 193.607 303.279 193.438 303.592 193.313C303.906 193.188 304.232 193.12 304.571 193.109C304.915 193.098 305.179 193.148 305.362 193.257C305.55 193.366 305.655 193.522 305.676 193.726C305.702 193.93 305.638 194.175 305.485 194.461L304.377 196.529C304.226 196.81 304.024 197.06 303.773 197.277C303.524 197.489 303.242 197.658 302.929 197.783C302.621 197.907 302.297 197.975 301.957 197.986ZM302.282 197.381C302.557 197.373 302.815 197.292 303.056 197.139C303.302 196.987 303.489 196.791 303.617 196.553L304.725 194.485C304.853 194.247 304.873 194.056 304.785 193.914C304.702 193.772 304.522 193.705 304.247 193.714C303.972 193.723 303.711 193.803 303.465 193.956C303.224 194.109 303.039 194.304 302.912 194.543L301.803 196.61C301.676 196.849 301.653 197.039 301.736 197.181C301.825 197.323 302.006 197.39 302.282 197.381ZM303.048 195.951C302.911 195.955 302.819 195.92 302.772 195.844C302.73 195.769 302.743 195.669 302.81 195.543C302.875 195.421 302.969 195.323 303.092 195.246C303.223 195.165 303.357 195.123 303.494 195.118C303.632 195.114 303.722 195.15 303.763 195.225C303.812 195.296 303.804 195.392 303.739 195.513C303.672 195.639 303.573 195.742 303.443 195.823C303.317 195.904 303.186 195.946 303.048 195.951Z" fill="white" />
			<path id="0_12" class="self" d="M337.369 197.986C337.029 197.997 336.766 197.948 336.578 197.838C336.395 197.729 336.29 197.573 336.264 197.369C336.24 197.161 336.304 196.916 336.455 196.634L337.563 194.567C337.717 194.28 337.915 194.031 338.16 193.819C338.409 193.607 338.69 193.438 339.003 193.313C339.317 193.188 339.643 193.12 339.982 193.109C340.326 193.098 340.59 193.148 340.773 193.257C340.961 193.366 341.066 193.522 341.087 193.726C341.113 193.93 341.049 194.175 340.896 194.461L339.788 196.529C339.637 196.81 339.436 197.06 339.184 197.277C338.935 197.489 338.654 197.658 338.34 197.783C338.032 197.907 337.708 197.975 337.369 197.986ZM337.693 197.381C337.968 197.373 338.226 197.292 338.467 197.139C338.714 196.987 338.901 196.791 339.028 196.553L340.137 194.485C340.264 194.247 340.284 194.056 340.196 193.914C340.113 193.772 339.934 193.705 339.658 193.714C339.383 193.723 339.122 193.803 338.876 193.956C338.635 194.109 338.45 194.304 338.323 194.543L337.214 196.61C337.087 196.849 337.064 197.039 337.148 197.181C337.236 197.323 337.417 197.39 337.693 197.381ZM338.459 195.951C338.322 195.955 338.23 195.92 338.183 195.844C338.141 195.769 338.154 195.669 338.221 195.543C338.286 195.421 338.381 195.323 338.504 195.246C338.634 195.165 338.768 195.123 338.906 195.118C339.043 195.114 339.133 195.15 339.175 195.225C339.224 195.296 339.216 195.392 339.15 195.513C339.083 195.639 338.984 195.742 338.854 195.823C338.729 195.904 338.597 195.946 338.459 195.951Z" fill="white" />
			<path id="0_13" class="low" d="M269.497 197.986C269.158 197.997 268.895 197.948 268.707 197.838C268.524 197.729 268.419 197.573 268.393 197.369C268.369 197.161 268.433 196.916 268.584 196.634L269.692 194.567C269.845 194.28 270.044 194.031 270.288 193.819C270.538 193.607 270.819 193.438 271.132 193.313C271.446 193.188 271.772 193.12 272.111 193.109C272.455 193.098 272.719 193.148 272.902 193.257C273.09 193.366 273.194 193.522 273.216 193.726C273.242 193.93 273.178 194.175 273.025 194.461L271.917 196.529C271.766 196.81 271.564 197.06 271.313 197.277C271.064 197.489 270.782 197.658 270.469 197.783C270.16 197.907 269.837 197.975 269.497 197.986ZM269.822 197.381C270.097 197.373 270.355 197.292 270.596 197.139C270.842 196.987 271.029 196.791 271.157 196.553L272.265 194.485C272.393 194.247 272.413 194.056 272.325 193.914C272.242 193.772 272.062 193.705 271.787 193.714C271.512 193.723 271.251 193.803 271.005 193.956C270.764 194.109 270.579 194.304 270.451 194.543L269.343 196.61C269.215 196.849 269.193 197.039 269.276 197.181C269.365 197.323 269.546 197.39 269.822 197.381ZM270.588 195.951C270.451 195.955 270.358 195.92 270.312 195.844C270.27 195.769 270.283 195.669 270.35 195.543C270.415 195.421 270.509 195.323 270.632 195.246C270.763 195.165 270.897 195.123 271.034 195.118C271.172 195.114 271.262 195.15 271.303 195.225C271.352 195.296 271.344 195.392 271.279 195.513C271.212 195.639 271.113 195.742 270.983 195.823C270.857 195.904 270.726 195.946 270.588 195.951Z" fill="white" />
			<path id="0_14" class="self" d="M275.399 197.986C275.06 197.997 274.797 197.948 274.609 197.838C274.425 197.729 274.321 197.573 274.295 197.369C274.271 197.161 274.335 196.916 274.486 196.634L275.594 194.567C275.747 194.28 275.946 194.031 276.19 193.819C276.439 193.607 276.721 193.438 277.034 193.313C277.348 193.188 277.674 193.12 278.013 193.109C278.357 193.098 278.621 193.148 278.804 193.257C278.992 193.366 279.096 193.522 279.118 193.726C279.144 193.93 279.08 194.175 278.927 194.461L277.818 196.529C277.667 196.81 277.466 197.06 277.215 197.277C276.966 197.489 276.684 197.658 276.371 197.783C276.062 197.907 275.738 197.975 275.399 197.986ZM275.723 197.381C275.999 197.373 276.257 197.292 276.498 197.139C276.744 196.987 276.931 196.791 277.059 196.553L278.167 194.485C278.295 194.247 278.315 194.056 278.227 193.914C278.143 193.772 277.964 193.705 277.689 193.714C277.414 193.723 277.153 193.803 276.907 193.956C276.666 194.109 276.481 194.304 276.353 194.543L275.245 196.61C275.117 196.849 275.095 197.039 275.178 197.181C275.266 197.323 275.448 197.39 275.723 197.381ZM276.49 195.951C276.352 195.955 276.26 195.92 276.214 195.844C276.172 195.769 276.185 195.669 276.252 195.543C276.317 195.421 276.411 195.323 276.534 195.246C276.665 195.165 276.799 195.123 276.936 195.118C277.074 195.114 277.163 195.15 277.205 195.225C277.254 195.296 277.246 195.392 277.181 195.513C277.114 195.639 277.015 195.742 276.885 195.823C276.759 195.904 276.628 195.946 276.49 195.951Z" fill="white" />
			<path id="0_15" class="low" d="M217.856 197.986C217.517 197.997 217.254 197.948 217.066 197.838C216.883 197.729 216.778 197.573 216.752 197.369C216.728 197.161 216.792 196.916 216.943 196.634L218.051 194.567C218.204 194.28 218.403 194.031 218.647 193.819C218.896 193.607 219.178 193.438 219.491 193.313C219.805 193.188 220.131 193.12 220.47 193.109C220.814 193.098 221.078 193.148 221.261 193.257C221.449 193.366 221.553 193.522 221.575 193.726C221.601 193.93 221.537 194.175 221.384 194.461L220.275 196.529C220.124 196.81 219.923 197.06 219.672 197.277C219.423 197.489 219.141 197.658 218.828 197.783C218.519 197.907 218.195 197.975 217.856 197.986ZM218.18 197.381C218.456 197.373 218.714 197.292 218.955 197.139C219.201 196.987 219.388 196.791 219.516 196.553L220.624 194.485C220.752 194.247 220.772 194.056 220.684 193.914C220.6 193.772 220.421 193.705 220.146 193.714C219.871 193.723 219.61 193.803 219.364 193.956C219.123 194.109 218.938 194.304 218.81 194.543L217.702 196.61C217.574 196.849 217.552 197.039 217.635 197.181C217.723 197.323 217.905 197.39 218.18 197.381ZM218.947 195.951C218.809 195.955 218.717 195.92 218.671 195.844C218.629 195.769 218.642 195.669 218.709 195.543C218.774 195.421 218.868 195.323 218.991 195.246C219.122 195.165 219.256 195.123 219.393 195.118C219.531 195.114 219.621 195.15 219.662 195.225C219.711 195.296 219.703 195.392 219.638 195.513C219.571 195.639 219.472 195.742 219.342 195.823C219.216 195.904 219.085 195.946 218.947 195.951Z" fill="white" />
			<path id="1" class="self" d="M152.876 197.971L153.21 197.346L154.641 197.301L156.523 193.79L154.579 194.778L154.987 194.018L156.644 193.185L157.647 193.154L155.437 197.276L156.595 197.239L156.26 197.864L152.876 197.971Z" fill="white" />
			<path id="1_2" class="low" d="M158.777 197.971L159.112 197.346L160.543 197.301L162.424 193.79L160.481 194.778L160.889 194.018L162.546 193.185L163.548 193.154L161.339 197.276L162.497 197.239L162.162 197.864L158.777 197.971Z" fill="white" />
			<path id="1_3" class="self" d="M182.385 197.971L182.719 197.346L184.15 197.301L186.032 193.79L184.089 194.778L184.496 194.018L186.153 193.185L187.156 193.154L184.946 197.276L186.104 197.239L185.769 197.864L182.385 197.971Z" fill="white" />
			<path id="1_4" class="low" d="M188.287 197.971L188.621 197.346L190.052 197.301L191.934 193.79L189.991 194.778L190.398 194.018L192.055 193.185L193.058 193.154L190.848 197.276L192.006 197.239L191.671 197.864L188.287 197.971Z" fill="white" />
			<path id="1_5" class="self" d="M204.517 197.971L204.851 197.346L206.282 197.301L208.164 193.79L206.221 194.778L206.628 194.018L208.285 193.185L209.288 193.154L207.078 197.276L208.236 197.239L207.901 197.864L204.517 197.971Z" fill="white" />
			<path id="1_6" class="low" d="M210.419 197.971L210.753 197.346L212.184 197.301L214.066 193.79L212.122 194.778L212.53 194.018L214.187 193.185L215.19 193.154L212.98 197.276L214.138 197.239L213.803 197.864L210.419 197.971Z" fill="white" />
			<path id="1_7" class="self" d="M222.222 197.971L222.557 197.346L223.987 197.301L225.869 193.79L223.926 194.778L224.334 194.018L225.99 193.185L226.993 193.154L224.784 197.276L225.941 197.239L225.607 197.864L222.222 197.971Z" fill="white" />
			<path id="1_8" class="low" d="M228.124 197.971L228.459 197.346L229.889 197.301L231.771 193.79L229.828 194.778L230.236 194.018L231.892 193.185L232.895 193.154L230.686 197.276L231.843 197.239L231.509 197.864L228.124 197.971Z" fill="white" />
			<path id="1_9" class="self" d="M234.026 197.971L234.361 197.346L235.791 197.301L237.673 193.79L235.73 194.778L236.138 194.018L237.794 193.185L238.797 193.154L236.587 197.276L237.745 197.239L237.411 197.864L234.026 197.971Z" fill="white" />
			<path id="1_10" class="low" d="M239.928 197.971L240.262 197.346L241.693 197.301L243.575 193.79L241.632 194.778L242.039 194.018L243.696 193.185L244.699 193.154L242.489 197.276L243.647 197.239L243.312 197.864L239.928 197.971Z" fill="white" />
			<path id="1_11" class="self" d="M279.765 197.971L280.1 197.346L281.53 197.301L283.412 193.79L281.469 194.778L281.877 194.018L283.533 193.185L284.536 193.154L282.327 197.276L283.484 197.239L283.15 197.864L279.765 197.971Z" fill="white" />
			<path id="1_12" class="low" d="M329.931 197.971L330.266 197.346L331.696 197.301L333.578 193.79L331.635 194.778L332.043 194.018L333.699 193.185L334.702 193.154L332.492 197.276L333.65 197.239L333.316 197.864L329.931 197.971Z" fill="white" />
			<path id="1_13" class="low" d="M256.158 197.971L256.493 197.346L257.923 197.301L259.805 193.79L257.862 194.778L258.269 194.018L259.926 193.185L260.929 193.154L258.719 197.276L259.877 197.239L259.542 197.864L256.158 197.971Z" fill="white" />
			<path id="1_14" class="self" d="M306.324 197.971L306.658 197.346L308.089 197.301L309.971 193.79L308.027 194.778L308.435 194.018L310.092 193.185L311.095 193.154L308.885 197.276L310.043 197.239L309.708 197.864L306.324 197.971Z" fill="white" />
			<path id="1_15" class="self" d="M341.735 197.971L342.069 197.346L343.5 197.301L345.382 193.79L343.438 194.778L343.846 194.018L345.503 193.185L346.506 193.154L344.296 197.276L345.454 197.239L345.119 197.864L341.735 197.971Z" fill="white" />
			<path id="1_16" class="low" d="M312.225 197.971L312.56 197.346L313.991 197.301L315.872 193.79L313.929 194.778L314.337 194.018L315.994 193.185L316.996 193.154L314.787 197.276L315.945 197.239L315.61 197.864L312.225 197.971Z" fill="white" />
			<path id="1_17" class="self" d="M262.06 197.971L262.394 197.346L263.825 197.301L265.707 193.79L263.764 194.778L264.171 194.018L265.828 193.185L266.831 193.154L264.621 197.276L265.779 197.239L265.444 197.864L262.06 197.971Z" fill="white" />
		</g>
	</g>
</svg>
